<svg viewBox="0 0 512 512" xmlns="http://www.w3.org/2000/svg"><g id="Peach"><g id="Flat"><path d="m255.993 359.389c-59.222-102.317-252.164 32.611-252.164 32.611s207.114 119.457 252.164 32.611c43.674 87.389 252.163-32.611 252.163-32.611s-192.111-135.656-252.163-32.611z" fill="#fdd835"/><path d="m255.993 398.047c-100.91 53.487-224-18.421-224-131.547 0-102.439 141.481-163.134 198.554-209.5a40.542 40.542 0 0 1 50.891 0c77.5 62.921 198.554 86.333 198.554 209.5 0 111.218-124.755 184.889-223.999 131.547z" fill="#ff8a80"/><g fill="#e53935"><path d="m335.43 253.922c-1-10.543-16.754-8.647-15.918 1.359.32 3.836.48 7.594.48 11.195 0 39.758-35.863 114.412-64 131.571a153.709 153.709 0 0 0 15.462 7.092c36.846-32.273 64.537-91.622 64.537-138.663.001-4.156-.159-8.32-.561-12.554z"/><path d="m282.313 174.242a137.291 137.291 0 0 1 18.719 24.158c5.363 8.725 18.956.454 13.679-8.242a152.769 152.769 0 0 0 -20.961-27.117c-7.45-7.675-18.441 4.044-11.437 11.201z"/><circle cx="320" cy="224" r="8"/></g><circle cx="151.993" cy="224" fill="#ffe8e6" r="40"/><circle cx="119.993" cy="304" fill="#ffe8e6" r="24"/><circle cx="383.992" cy="208" fill="#ffe8e6" r="16"/><path d="m479.992 266.5c0-55.059-24.2-90.176-57.874-117.807 40.532 107.3-34.076 243.89-164.32 250.242.256.132.513.285.77.439 98.814 50.72 221.424-22.615 221.424-132.874z" fill="#ff5252"/></g></g></svg>